<?xml version="1.0" encoding="utf-8"?>
<!-- Generator: Adobe Illustrator 22.1.0, SVG Export Plug-In . SVG Version: 6.00 Build 0)  -->
<svg version="1.1" id="Layer_1" xmlns="http://www.w3.org/2000/svg" xmlns:xlink="http://www.w3.org/1999/xlink" x="0px" y="0px"
	 viewBox="0 0 32.7 36.2" style="enable-background:new 0 0 32.7 36.2;" xml:space="preserve">
<style type="text/css">
	.st0{fill:#FFFFFF;}
</style>
<g>
	<path class="st0" d="M11.3,6.4c-0.1,0-0.2,0-0.2-0.1C11,6.3,10.9,6.2,11,6.1l0.5-2.3c0-0.1,0.1-0.2,0.2-0.2l4.8-2.3
		c0.1,0,0.2,0,0.3,0l4.3,1.9c0.1,0,0.2,0.1,0.2,0.2c0,0.1,0,0.2-0.1,0.3L19.7,5c0,0-0.1,0.1-0.2,0.1L11.3,6.4
		C11.3,6.4,11.3,6.4,11.3,6.4z M12,4.1l-0.3,1.7l7.7-1.3l0.9-0.9l-3.7-1.6L12,4.1z"/>
	<path class="st0" d="M26.2,23.2c-0.1,0-0.3-0.1-0.3-0.2L21.7,6.3L19.4,5c-0.1,0-0.1-0.1-0.2-0.2c0-0.1,0-0.2,0.1-0.3l1.3-1.3
		c0.1-0.1,0.2-0.1,0.3-0.1l2.5,1c0.1,0,0.1,0.1,0.2,0.2l2.8,7.5c0,0,0,0.1,0,0.1v10.9C26.5,23.1,26.4,23.2,26.2,23.2
		C26.2,23.2,26.2,23.2,26.2,23.2z M20,4.7l2.1,1.2c0.1,0,0.1,0.1,0.1,0.2l3.6,14.4V12l-2.8-7.3l-2.2-0.9L20,4.7z"/>
	<path class="st0" d="M6,19.5C6,19.5,6,19.5,6,19.5c-0.2,0-0.3-0.1-0.3-0.3l-0.4-2.6c0-0.1,0-0.1,0-0.2l4.9-11.7c0,0,0-0.1,0.1-0.1
		l1.2-1c0.1-0.1,0.2-0.1,0.4,0C12,3.7,12,3.8,12,3.9l-0.5,2.3c0,0,0,0,0,0.1l-5.3,13C6.2,19.4,6.1,19.5,6,19.5z M5.9,16.6L6.1,18
		L11,6l0.3-1.4l-0.4,0.4L5.9,16.6z"/>
	<path class="st0" d="M9.8,28.8C9.8,28.8,9.8,28.8,9.8,28.8l-2.2-0.7c-0.1,0-0.2-0.1-0.2-0.2l-1.8-8.6c0-0.2,0.1-0.3,0.2-0.4
		c0.2,0,0.3,0,0.4,0.2l3.9,9.4c0,0.1,0,0.2-0.1,0.3C10,28.8,9.9,28.8,9.8,28.8z M8,27.6L9.3,28l-2.4-5.8L8,27.6z"/>
	<path class="st0" d="M8.8,26.2C8.7,26.2,8.7,26.2,8.8,26.2c-0.2,0-0.2-0.1-0.3-0.2l-2.8-6.7c0-0.1,0-0.2,0-0.2L11,6
		c0.1-0.1,0.2-0.2,0.3-0.2c0.1,0,0.2,0.1,0.3,0.3l0.9,17.7c0,0.1-0.1,0.2-0.1,0.3l-3.4,2.1C8.9,26.2,8.8,26.2,8.8,26.2z M6.3,19.2
		l2.6,6.3l2.9-1.8L11,7.5L6.3,19.2z"/>
	<path class="st0" d="M14.9,25.2c0,0-0.1,0-0.1,0L12,24.1c-0.1,0-0.2-0.1-0.2-0.3L11,6.2c0-0.2,0.1-0.3,0.3-0.3l8.2-1.4
		c0.1,0,0.1,0,0.2,0l2.4,1.4c0.1,0,0.1,0.1,0.1,0.2l2.1,8.4c0,0.1,0,0.2-0.1,0.3l-9.1,10.3C15.1,25.2,15,25.2,14.9,25.2z M12.4,23.6
		l2.4,0.9l8.9-10.1l-2-8.1l-2.2-1.3l-7.9,1.3L12.4,23.6z"/>
	<path class="st0" d="M19.2,31.3c-0.1,0-0.2,0-0.2-0.1l-4.3-6c-0.1-0.1-0.1-0.3,0-0.4l9.1-10.3c0.1-0.1,0.2-0.1,0.3-0.1
		c0.1,0,0.2,0.1,0.2,0.2l2.1,8.4c0,0.1,0,0.1,0,0.2l-3,7c0,0.1-0.1,0.2-0.2,0.2L19.2,31.3C19.2,31.2,19.2,31.3,19.2,31.3z
		 M15.3,24.9l4,5.7l3.6-0.9l2.9-6.8l-1.9-7.7L15.3,24.9z"/>
	<path class="st0" d="M17.7,32c0,0-0.1,0-0.1,0l-7.8-3.2c-0.1,0-0.1-0.1-0.2-0.2L8.5,26c-0.1-0.1,0-0.3,0.1-0.4l3.4-2.1
		c0.1,0,0.2-0.1,0.3,0l2.8,1.1c0.1,0,0.1,0.1,0.1,0.1l4.3,6c0.1,0.1,0.1,0.2,0,0.3c0,0.1-0.1,0.2-0.2,0.2L17.8,32
		C17.8,32,17.7,32,17.7,32z M10.1,28.3l7.6,3.1l1.1-0.5l-4-5.7l-2.6-1l-3,1.9L10.1,28.3z"/>
	<path class="st0" d="M16.8,33.6c0,0-0.1,0-0.1,0l-8.1-3.7c-0.1,0-0.1-0.1-0.1-0.1l-0.9-1.8c-0.1-0.1,0-0.2,0-0.3
		c0.1-0.1,0.2-0.1,0.3-0.1l2.1,0.7l7.8,3.2c0,0,0,0,0.1,0l1.5,1.2c0.1,0.1,0.1,0.2,0.1,0.3c0,0.1-0.1,0.2-0.2,0.2L16.8,33.6
		C16.8,33.6,16.8,33.6,16.8,33.6z M8.9,29.3l7.9,3.6l1.7-0.3L17.5,32l-7.8-3.2l-1.4-0.5L8.9,29.3z"/>
	<path class="st0" d="M19.2,33.2c-0.1,0-0.1,0-0.2-0.1L17.5,32c-0.1-0.1-0.1-0.2-0.1-0.3c0-0.1,0.1-0.2,0.2-0.2l1.5-0.8
		c0,0,0,0,0.1,0l4-1c0.1,0,0.2,0,0.2,0c0.1,0,0.1,0.1,0.1,0.2l0.2,1c0,0.1,0,0.3-0.2,0.3l-4.2,1.9C19.3,33.2,19.2,33.2,19.2,33.2z
		 M18.2,31.8l1,0.8l3.8-1.8l-0.1-0.5l-3.6,0.9L18.2,31.8z"/>
	<path class="st0" d="M23.4,31.3c0,0-0.1,0-0.1,0c-0.1,0-0.2-0.1-0.2-0.2l-0.2-1c0-0.1,0-0.1,0-0.2l3-7c0.1-0.1,0.2-0.2,0.3-0.2
		c0.1,0,0.2,0.2,0.2,0.3v6.5c0,0.1-0.1,0.2-0.2,0.3l-2.8,1.6C23.5,31.2,23.4,31.3,23.4,31.3z M23.5,30l0.1,0.5l2.3-1.3v-4.8L23.5,30
		z M26.2,29.4L26.2,29.4L26.2,29.4z"/>
</g>
<g>
	<path class="st0" d="M84,29.4c-0.3,0-0.5-0.2-0.5-0.5V27c0-1.8-1.1-3.3-2.8-3.9l-3.6-1.2c-1.9-0.6-3.3-2.4-3.5-4.4l0-0.5
		c-1.4,0.6-3,0.6-4.4,0l0,0.5c-0.2,2-1.5,3.8-3.5,4.4l-3.6,1.2c-1.7,0.6-2.8,2.1-2.8,3.9v1.9c0,0.3-0.2,0.5-0.5,0.5
		s-0.5-0.2-0.5-0.5V27c0-2.2,1.4-4.2,3.5-4.8l3.6-1.2c1.6-0.5,2.7-1.9,2.8-3.6l0.1-1.3c0-0.2,0.1-0.3,0.3-0.4c0.2-0.1,0.3-0.1,0.5,0
		c1.4,0.9,3.3,0.9,4.7,0c0.1-0.1,0.3-0.1,0.5,0c0.2,0.1,0.3,0.2,0.3,0.4l0.1,1.3c0.1,1.6,1.2,3,2.8,3.6l3.6,1.2
		c2.1,0.7,3.5,2.6,3.5,4.8v1.9C84.5,29.2,84.3,29.4,84,29.4z"/>
	<path class="st0" d="M71.4,17.4c-3,0-5.4-2.4-5.4-5.4V7.7c0-3,2.4-5.4,5.4-5.4c3,0,5.4,2.4,5.4,5.4v4.4
		C76.8,15,74.4,17.4,71.4,17.4z M71.4,3.3c-2.4,0-4.4,2-4.4,4.4v4.4c0,2.4,2,4.4,4.4,4.4c2.4,0,4.4-2,4.4-4.4V7.7
		C75.8,5.3,73.8,3.3,71.4,3.3z"/>
</g>
<g>
	<path class="st0" d="M96.9,27.2c-1.3,0-2.3-1-2.3-2.3s1-2.3,2.3-2.3c1.3,0,2.3,1,2.3,2.3S98.2,27.2,96.9,27.2z M96.9,23.6
		c-0.7,0-1.3,0.6-1.3,1.3s0.6,1.3,1.3,1.3s1.3-0.6,1.3-1.3S97.7,23.6,96.9,23.6z"/>
	<path class="st0" d="M87,16.3c-0.1,0-0.3,0-0.4-0.1c-0.2-0.2-0.2-0.5,0-0.7c2.8-2.8,6.4-4.3,10.3-4.3s7.6,1.5,10.3,4.3
		c0.2,0.2,0.2,0.5,0,0.7s-0.5,0.2-0.7,0c-2.6-2.6-6-4-9.6-4s-7,1.4-9.6,4C87.2,16.3,87.1,16.3,87,16.3z"/>
	<path class="st0" d="M110.9,12.3c-0.1,0-0.3,0-0.4-0.1c-3.6-3.6-8.5-5.7-13.6-5.7c-5.1,0-10,2-13.6,5.7c-0.2,0.2-0.5,0.2-0.7,0
		s-0.2-0.5,0-0.7c3.8-3.8,8.9-5.9,14.3-5.9s10.5,2.1,14.3,5.9c0.2,0.2,0.2,0.5,0,0.7C111.2,12.2,111.1,12.3,110.9,12.3z"/>
	<path class="st0" d="M91,20.3c-0.1,0-0.3,0-0.4-0.1c-0.2-0.2-0.2-0.5,0-0.7c1.7-1.7,3.9-2.6,6.3-2.6c2.4,0,4.6,0.9,6.3,2.6
		c0.2,0.2,0.2,0.5,0,0.7s-0.5,0.2-0.7,0c-1.5-1.5-3.5-2.3-5.6-2.3c-2.1,0-4.1,0.8-5.6,2.3C91.3,20.3,91.1,20.3,91,20.3z"/>
</g>
<g>
	<path class="st0" d="M75,55.1H51.9c-2.2,0-3.9-1.8-3.9-3.9V39.6c0-2.2,1.8-3.9,3.9-3.9H75c2.2,0,3.9,1.8,3.9,3.9v11.6
		C78.9,53.4,77.2,55.1,75,55.1z M51.9,36.7c-1.6,0-2.9,1.3-2.9,2.9v11.6c0,1.6,1.3,2.9,2.9,2.9H75c1.6,0,2.9-1.3,2.9-2.9V39.6
		c0-1.6-1.3-2.9-2.9-2.9H51.9z"/>
	<path class="st0" d="M71,52c-1.3,0-2.3-1-2.3-2.3s1-2.3,2.3-2.3c0.6,0,1.2,0.2,1.6,0.6c0.1,0.1,0.2,0.2,0.2,0.4s-0.1,0.3-0.2,0.4
		c-0.3,0.3-0.4,0.6-0.4,1c0,0.4,0.2,0.7,0.4,1c0.1,0.1,0.2,0.2,0.2,0.4s-0.1,0.3-0.2,0.4C72.2,51.8,71.6,52,71,52z M71,48.3
		c-0.7,0-1.3,0.6-1.3,1.3c0,0.7,0.6,1.3,1.3,1.3c0.2,0,0.4,0,0.5-0.1c-0.2-0.4-0.4-0.8-0.4-1.2s0.1-0.9,0.4-1.2
		C71.4,48.4,71.2,48.3,71,48.3z"/>
	<path class="st0" d="M73.5,52c-1.3,0-2.3-1-2.3-2.3s1-2.3,2.3-2.3c1.3,0,2.3,1,2.3,2.3S74.8,52,73.5,52z M73.5,48.3
		c-0.7,0-1.3,0.6-1.3,1.3s0.6,1.3,1.3,1.3c0.7,0,1.3-0.6,1.3-1.3S74.3,48.3,73.5,48.3z"/>
	<g>
		<line class="st0" x1="51.5" y1="46.2" x2="53.2" y2="46.2"/>
		<path class="st0" d="M53.2,46.7h-1.7c-0.3,0-0.5-0.2-0.5-0.5s0.2-0.5,0.5-0.5h1.7c0.3,0,0.5,0.2,0.5,0.5S53.4,46.7,53.2,46.7z"/>
	</g>
	<g>
		<line class="st0" x1="51.5" y1="49.7" x2="58.1" y2="49.7"/>
		<path class="st0" d="M58.1,50.2h-6.6c-0.3,0-0.5-0.2-0.5-0.5s0.2-0.5,0.5-0.5h6.6c0.3,0,0.5,0.2,0.5,0.5S58.3,50.2,58.1,50.2z"/>
	</g>
	<g>
		<line class="st0" x1="55.4" y1="46.2" x2="57.1" y2="46.2"/>
		<path class="st0" d="M57.1,46.7h-1.7c-0.3,0-0.5-0.2-0.5-0.5s0.2-0.5,0.5-0.5h1.7c0.3,0,0.5,0.2,0.5,0.5S57.4,46.7,57.1,46.7z"/>
	</g>
	<g>
		<line class="st0" x1="59.4" y1="46.2" x2="61.1" y2="46.2"/>
		<path class="st0" d="M61.1,46.7h-1.7c-0.3,0-0.5-0.2-0.5-0.5s0.2-0.5,0.5-0.5h1.7c0.3,0,0.5,0.2,0.5,0.5S61.4,46.7,61.1,46.7z"/>
	</g>
	<g>
		<line class="st0" x1="63.4" y1="46.2" x2="65.1" y2="46.2"/>
		<path class="st0" d="M65.1,46.7h-1.7c-0.3,0-0.5-0.2-0.5-0.5s0.2-0.5,0.5-0.5h1.7c0.3,0,0.5,0.2,0.5,0.5S65.3,46.7,65.1,46.7z"/>
	</g>
</g>
</svg>
