<?xml version="1.0" encoding="utf-8"?>
<!-- Generator: Adobe Illustrator 22.1.0, SVG Export Plug-In . SVG Version: 6.00 Build 0)  -->
<svg version="1.1" id="레이어_1" xmlns="http://www.w3.org/2000/svg" xmlns:xlink="http://www.w3.org/1999/xlink" x="0px"
	 y="0px" viewBox="0 0 32 43.1" style="enable-background:new 0 0 32 43.1;" xml:space="preserve">
<style type="text/css">
	.st0{fill:#FFFFFF;}
</style>
<g>
	<path class="st0" d="M17,41.2h-2.3c-5.5,0-10.1-4.5-10.1-10V20.1c0-0.3,0.2-0.5,0.5-0.5h21.4c0.3,0,0.5,0.2,0.5,0.5v11.1
		C27.1,36.7,22.6,41.2,17,41.2z M5.7,20.6v10.6c0,5,4.1,9,9.1,9H17c5,0,9-4.1,9-9V20.6H5.7z"/>
	<path class="st0" d="M17,41.4h-2.3c-5.6,0-10.2-4.6-10.2-10.2V20.1c0-0.3,0.3-0.6,0.6-0.6h21.4c0.3,0,0.6,0.3,0.6,0.6v11.1
		C27.2,36.8,22.6,41.4,17,41.4z M5.2,19.7c-0.2,0-0.4,0.2-0.4,0.4v11.1c0,5.5,4.5,9.9,9.9,9.9H17c5.5,0,9.9-4.5,9.9-9.9V20.1
		c0-0.2-0.2-0.4-0.4-0.4H5.2z M17,40.4h-2.3c-5.1,0-9.2-4.1-9.2-9.2V20.4h20.6v10.8C26.2,36.2,22.1,40.4,17,40.4z M5.8,20.7v10.5
		c0,4.9,4,8.9,8.9,8.9H17c4.9,0,8.9-4,8.9-8.9V20.7H5.8z"/>
</g>
<g>
	<path class="st0" d="M15.9,37c-0.8,0-1.6-0.4-2-1c-1.3,0.3-2.6-0.7-2.6-2.1c0-1,0.7-1.8,1.6-2.1V29c0-0.1,0-0.2,0.1-0.3
		c0.3-0.5,0.4-1,0.4-1.5c0-0.1,0-0.1,0-0.2l0-0.1c0-0.1,0-0.2,0.1-0.3c0.6-0.8,1.5-1.4,2.5-1.4c1.1,0,2,0.6,2.6,1.5
		c0,0.1,0.1,0.2,0.1,0.3l0,0.1c0,0.5,0.1,1,0.3,1.4c0,0.1,0.1,0.1,0.1,0.2v3.1c0.9,0.2,1.6,1.1,1.6,2.1c0,1.2-0.9,2.1-2.1,2.1
		c-0.1,0-0.3,0-0.4,0C17.4,36.6,16.7,37,15.9,37z M14,34.8c0.2,0,0.4,0.1,0.4,0.3c0.3,0.5,0.8,0.9,1.4,0.9c0.6,0,1.1-0.3,1.4-0.8
		c0.1-0.2,0.4-0.3,0.6-0.2c0.7,0.3,1.5-0.3,1.5-1c0-0.6-0.5-1.1-1.1-1.1c-0.3,0-0.5-0.2-0.5-0.5v-3.4c-0.2-0.5-0.4-1.1-0.4-1.6
		c0-0.1,0-0.1,0-0.2c-0.4-0.5-1-0.9-1.6-0.9c-0.6,0-1.2,0.3-1.5,0.8c0,0.1,0,0.2,0,0.3c0,0.6-0.2,1.3-0.5,1.8v3.2
		c0,0.3-0.2,0.5-0.5,0.5c-0.6,0-1.1,0.5-1.1,1.1c0,0.8,0.8,1.4,1.6,1C13.9,34.9,14,34.8,14,34.8z"/>
	<path class="st0" d="M15.9,37.1c-0.8,0-1.6-0.4-2.1-1c-0.6,0.1-1.3,0-1.8-0.4c-0.6-0.4-0.9-1.1-0.9-1.8c0-1,0.7-1.9,1.6-2.2V29
		c0-0.1,0-0.2,0.1-0.3c0.3-0.4,0.4-0.9,0.4-1.4c0-0.1,0-0.1,0-0.2l0-0.1c0-0.1,0-0.3,0.1-0.4c0.6-0.9,1.5-1.4,2.6-1.4
		c1.1,0,2.1,0.6,2.7,1.6c0.1,0.1,0.1,0.2,0.1,0.4l0,0.1c0,0.5,0.1,0.9,0.3,1.3c0,0.1,0.1,0.2,0.1,0.3v3c1,0.3,1.6,1.1,1.6,2.2
		c0,1.2-1,2.2-2.2,2.2c-0.1,0-0.2,0-0.4,0C17.4,36.7,16.7,37.1,15.9,37.1z M13.9,35.8L13.9,35.8c0.5,0.7,1.2,1,2,1
		c0.7,0,1.5-0.4,1.9-0.9l0-0.1l0.1,0c0.1,0,0.3,0,0.4,0c1.1,0,2-0.9,2-2c0-0.9-0.6-1.7-1.5-1.9l-0.1,0v-3.2c0-0.1,0-0.1,0-0.2
		c-0.2-0.5-0.3-0.9-0.3-1.4l0-0.1c0-0.1,0-0.1,0-0.2c-0.5-0.9-1.5-1.4-2.5-1.4c-1,0-1.9,0.5-2.4,1.3c0,0.1-0.1,0.2-0.1,0.2l0,0.1
		c0,0.1,0,0.2,0,0.2c0,0.5-0.1,1-0.4,1.5c0,0.1-0.1,0.1-0.1,0.2v3l-0.1,0c-0.9,0.2-1.5,1-1.5,1.9c0,0.6,0.3,1.2,0.8,1.6
		C12.6,35.8,13.2,36,13.9,35.8L13.9,35.8z M15.9,36.1c-0.6,0-1.2-0.4-1.5-0.9c-0.1-0.2-0.3-0.2-0.5-0.2c-0.4,0.2-0.8,0.2-1.2-0.1
		c-0.4-0.2-0.6-0.6-0.6-1c0-0.7,0.6-1.2,1.2-1.2c0.2,0,0.4-0.2,0.4-0.4l0-3.2c0.3-0.6,0.5-1.2,0.5-1.8c0-0.1,0-0.2,0-0.2l0-0.1l0,0
		c0.4-0.5,1-0.8,1.6-0.8c0.7,0,1.3,0.3,1.7,0.9l0,0l0,0c0,0,0,0.1,0,0.1c0,0.5,0.1,1.1,0.4,1.6l0,0.1v3.4c0,0.2,0.2,0.4,0.4,0.4
		c0.7,0,1.2,0.6,1.2,1.2c0,0.4-0.2,0.8-0.6,1c-0.4,0.2-0.8,0.3-1.2,0.1c-0.2-0.1-0.4,0-0.5,0.2C17.1,35.7,16.5,36.1,15.9,36.1z
		 M14,34.7c0.2,0,0.4,0.1,0.6,0.3c0.3,0.5,0.8,0.8,1.3,0.8c0.5,0,1-0.3,1.3-0.8c0.2-0.3,0.5-0.4,0.8-0.3c0.3,0.1,0.6,0.1,0.9-0.1
		c0.3-0.2,0.4-0.5,0.4-0.8c0-0.5-0.4-1-1-1c-0.3,0-0.6-0.3-0.6-0.6v-3.4c-0.2-0.5-0.4-1.1-0.4-1.7c0,0,0-0.1,0-0.1
		c-0.4-0.5-0.9-0.8-1.5-0.8c-0.6,0-1.1,0.2-1.4,0.7c0,0.1,0,0.1,0,0.2c0,0.7-0.2,1.3-0.5,1.9v3.1c0,0.3-0.3,0.6-0.6,0.6
		c-0.5,0-1,0.4-1,1c0,0.3,0.2,0.7,0.5,0.8c0.3,0.2,0.6,0.2,0.9,0C13.9,34.7,13.9,34.7,14,34.7z"/>
</g>
<g>
	<path class="st0" d="M24.1,25h-0.7c-0.1,0-0.2,0-0.3-0.1c-1-0.8-2.4-0.7-3.4,0C19.6,25,19.5,25,19.4,25h-0.7
		c-0.9,0-1.5-0.7-1.5-1.5v-0.2c0-0.9,0.7-1.5,1.5-1.5h5.4c0.9,0,1.5,0.7,1.5,1.5v0.2C25.7,24.3,25,25,24.1,25z M23.6,24h0.5
		c0.3,0,0.5-0.2,0.5-0.5v-0.2c0-0.3-0.2-0.5-0.5-0.5h-5.4c-0.3,0-0.5,0.2-0.5,0.5v0.2c0,0.3,0.2,0.5,0.5,0.5h0.5
		C20.5,23.1,22.3,23.1,23.6,24z"/>
	<path class="st0" d="M24.1,25.1h-0.7c-0.1,0-0.3,0-0.4-0.1c-1-0.7-2.3-0.7-3.3,0c-0.1,0.1-0.2,0.1-0.4,0.1h-0.7
		c-0.9,0-1.7-0.8-1.7-1.7v-0.2c0-0.9,0.8-1.7,1.7-1.7h5.4c0.9,0,1.7,0.8,1.7,1.7v0.2C25.8,24.4,25,25.1,24.1,25.1z M21.4,24.2
		c0.6,0,1.3,0.2,1.8,0.6c0.1,0,0.1,0.1,0.2,0.1h0.7c0.8,0,1.4-0.6,1.4-1.4v-0.2c0-0.8-0.6-1.4-1.4-1.4h-5.4c-0.8,0-1.4,0.6-1.4,1.4
		v0.2c0,0.8,0.6,1.4,1.4,1.4h0.7c0.1,0,0.2,0,0.2-0.1C20.1,24.4,20.8,24.2,21.4,24.2z M24.1,24.1h-0.6l0,0c-1.3-0.8-3-0.8-4.2,0l0,0
		h-0.6c-0.4,0-0.7-0.3-0.7-0.7v-0.2c0-0.4,0.3-0.7,0.7-0.7h5.4c0.4,0,0.7,0.3,0.7,0.7v0.2C24.8,23.8,24.5,24.1,24.1,24.1z
		 M23.6,23.9h0.5c0.2,0,0.4-0.2,0.4-0.4v-0.2c0-0.2-0.2-0.4-0.4-0.4h-5.4c-0.2,0-0.4,0.2-0.4,0.4v0.2c0,0.2,0.2,0.4,0.4,0.4h0.5
		C20.5,23,22.3,23,23.6,23.9z"/>
</g>
<g>
	<path class="st0" d="M13.1,25h-0.7c-0.1,0-0.2,0-0.3-0.1c-1-0.7-2.4-0.8-3.5,0C8.6,25,8.5,25,8.4,25H7.7c-0.9,0-1.5-0.7-1.5-1.5
		v-0.2c0-0.9,0.7-1.5,1.5-1.5h5.4c0.9,0,1.5,0.7,1.5,1.5v0.2C14.7,24.3,14,25,13.1,25z M12.6,24h0.5c0.3,0,0.5-0.2,0.5-0.5v-0.2
		c0-0.3-0.2-0.5-0.5-0.5H7.7c-0.3,0-0.5,0.2-0.5,0.5v0.2c0,0.3,0.2,0.5,0.5,0.5h0.5C9.5,23.1,11.3,23.1,12.6,24z"/>
	<path class="st0" d="M13.1,25.1h-0.7c-0.1,0-0.3,0-0.4-0.1c-1-0.7-2.3-0.7-3.3,0c-0.1,0.1-0.2,0.1-0.4,0.1H7.7
		c-0.9,0-1.7-0.8-1.7-1.7v-0.2c0-0.9,0.8-1.7,1.7-1.7h5.4c0.9,0,1.7,0.8,1.7,1.7v0.2C14.8,24.4,14,25.1,13.1,25.1z M10.4,24.2
		c0.6,0,1.3,0.2,1.8,0.6c0.1,0,0.1,0.1,0.2,0.1h0.7c0.8,0,1.4-0.6,1.4-1.4v-0.2c0-0.8-0.6-1.4-1.4-1.4H7.7c-0.8,0-1.4,0.6-1.4,1.4
		v0.2c0,0.8,0.6,1.4,1.4,1.4h0.7c0.1,0,0.2,0,0.2-0.1C9.1,24.4,9.7,24.2,10.4,24.2z M13.1,24.1h-0.6l0,0c-1.3-0.8-3-0.8-4.2,0l0,0
		H7.7c-0.4,0-0.7-0.3-0.7-0.7v-0.2c0-0.4,0.3-0.7,0.7-0.7h5.4c0.4,0,0.7,0.3,0.7,0.7v0.2C13.8,23.8,13.5,24.1,13.1,24.1z M12.6,23.9
		h0.5c0.2,0,0.4-0.2,0.4-0.4v-0.2c0-0.2-0.2-0.4-0.4-0.4H7.7c-0.2,0-0.4,0.2-0.4,0.4v0.2c0,0.2,0.2,0.4,0.4,0.4h0.5
		C9.5,23,11.3,23,12.6,23.9z"/>
</g>
<g>
	<g>
		<path class="st0" d="M21.4,31.2c-2.2,0-3.9-1.8-3.9-3.9s1.8-3.9,3.9-3.9s3.9,1.8,3.9,3.9S23.6,31.2,21.4,31.2z M21.4,24.3
			c-1.6,0-2.9,1.3-2.9,2.9s1.3,2.9,2.9,2.9s2.9-1.3,2.9-2.9S23,24.3,21.4,24.3z"/>
		<path class="st0" d="M21.4,31.3c-2.2,0-4.1-1.8-4.1-4.1s1.8-4.1,4.1-4.1s4.1,1.8,4.1,4.1S23.6,31.3,21.4,31.3z M21.4,23.5
			c-2.1,0-3.8,1.7-3.8,3.8s1.7,3.8,3.8,3.8s3.8-1.7,3.8-3.8S23.5,23.5,21.4,23.5z M21.4,30.3c-1.7,0-3.1-1.4-3.1-3.1
			s1.4-3.1,3.1-3.1s3.1,1.4,3.1,3.1S23.1,30.3,21.4,30.3z M21.4,24.5c-1.5,0-2.8,1.3-2.8,2.8s1.3,2.8,2.8,2.8s2.8-1.3,2.8-2.8
			S22.9,24.5,21.4,24.5z"/>
	</g>
	<g>
		<path class="st0" d="M10.4,31.2c-2.2,0-3.9-1.8-3.9-3.9s1.8-3.9,3.9-3.9s3.9,1.8,3.9,3.9S12.5,31.2,10.4,31.2z M10.4,24.3
			c-1.6,0-2.9,1.3-2.9,2.9s1.3,2.9,2.9,2.9c1.6,0,2.9-1.3,2.9-2.9S12,24.3,10.4,24.3z"/>
		<path class="st0" d="M10.4,31.3c-2.2,0-4.1-1.8-4.1-4.1s1.8-4.1,4.1-4.1s4.1,1.8,4.1,4.1S12.6,31.3,10.4,31.3z M10.4,23.5
			c-2.1,0-3.8,1.7-3.8,3.8s1.7,3.8,3.8,3.8c2.1,0,3.8-1.7,3.8-3.8S12.5,23.5,10.4,23.5z M10.4,30.3c-1.7,0-3.1-1.4-3.1-3.1
			s1.4-3.1,3.1-3.1s3.1,1.4,3.1,3.1S12.1,30.3,10.4,30.3z M10.4,24.5c-1.5,0-2.8,1.3-2.8,2.8s1.3,2.8,2.8,2.8s2.8-1.3,2.8-2.8
			S11.9,24.5,10.4,24.5z"/>
	</g>
	<g>
		<path class="st0" d="M21.4,29.6c-1.3,0-2.3-1-2.3-2.3s1-2.3,2.3-2.3s2.3,1,2.3,2.3S22.7,29.6,21.4,29.6z M21.4,26
			c-0.7,0-1.3,0.6-1.3,1.3s0.6,1.3,1.3,1.3s1.3-0.6,1.3-1.3S22.1,26,21.4,26z"/>
		<path class="st0" d="M21.4,29.7c-1.3,0-2.4-1.1-2.4-2.4s1.1-2.4,2.4-2.4s2.4,1.1,2.4,2.4S22.7,29.7,21.4,29.7z M21.4,25.1
			c-1.2,0-2.2,1-2.2,2.2s1,2.2,2.2,2.2s2.2-1,2.2-2.2S22.6,25.1,21.4,25.1z M21.4,28.7c-0.8,0-1.4-0.6-1.4-1.4s0.6-1.4,1.4-1.4
			s1.4,0.6,1.4,1.4S22.2,28.7,21.4,28.7z M21.4,26.1c-0.6,0-1.2,0.5-1.2,1.2s0.5,1.2,1.2,1.2s1.2-0.5,1.2-1.2S22,26.1,21.4,26.1z"/>
	</g>
	<g>
		<path class="st0" d="M10.4,29.6c-1.3,0-2.4-1.1-2.4-2.4s1.1-2.4,2.4-2.4s2.4,1.1,2.4,2.4S11.7,29.6,10.4,29.6z M10.4,25.9
			c-0.7,0-1.4,0.6-1.4,1.4c0,0.7,0.6,1.4,1.4,1.4c0.8,0,1.4-0.6,1.4-1.4C11.7,26.5,11.1,25.9,10.4,25.9z"/>
		<path class="st0" d="M10.4,29.7c-1.4,0-2.5-1.1-2.5-2.5c0-1.4,1.1-2.5,2.5-2.5c1.4,0,2.5,1.1,2.5,2.5
			C12.9,28.6,11.7,29.7,10.4,29.7z M10.4,25c-1.2,0-2.2,1-2.2,2.2c0,1.2,1,2.2,2.2,2.2c1.2,0,2.2-1,2.2-2.2C12.6,26,11.6,25,10.4,25
			z M10.4,28.7c-0.8,0-1.5-0.7-1.5-1.5s0.7-1.5,1.5-1.5s1.5,0.7,1.5,1.5S11.2,28.7,10.4,28.7z M10.4,26c-0.7,0-1.2,0.6-1.2,1.2
			c0,0.7,0.6,1.2,1.2,1.2c0.7,0,1.2-0.6,1.2-1.2C11.6,26.6,11.1,26,10.4,26z"/>
	</g>
</g>
<g>
	<path class="st0" d="M26.4,14H5.3c-0.1,0-0.3-0.1-0.4-0.2c-0.1-0.1-0.1-0.3-0.1-0.4c0.9-7.1,5.5-12.2,11-12.2s10.2,5.1,11,12.2
		c0,0.1,0,0.3-0.1,0.4C26.7,13.9,26.6,14,26.4,14z M5.9,13h19.9c-1-6.3-5.1-10.8-10-10.8S6.9,6.7,5.9,13z"/>
	<path class="st0" d="M26.4,14.1H5.3c-0.2,0-0.3-0.1-0.5-0.2c-0.1-0.1-0.2-0.3-0.2-0.5C5.6,6.3,10.3,1.1,15.9,1.1S26.2,6.3,27,13.4
		c0,0.2,0,0.4-0.2,0.5C26.8,14,26.6,14.1,26.4,14.1z M15.9,1.3C10.4,1.3,5.8,6.4,5,13.5c0,0.1,0,0.2,0.1,0.3
		c0.1,0.1,0.2,0.1,0.3,0.1h21.1c0.1,0,0.2,0,0.3-0.1c0.1-0.1,0.1-0.2,0.1-0.3C26,6.4,21.4,1.3,15.9,1.3z M26,13.1H5.8l0-0.1
		c1-6.4,5.1-10.9,10.1-10.9S25,6.6,26,13L26,13.1z M6.1,12.9h19.7c-1-6.2-5-10.6-9.8-10.6S7.1,6.7,6.1,12.9z"/>
</g>
<g>
	<path class="st0" d="M30.2,20.6H1.5c-0.3,0-0.5-0.2-0.5-0.5v-6.6C1,13.2,1.2,13,1.5,13h28.7c0.3,0,0.5,0.2,0.5,0.5v6.6
		C30.7,20.3,30.5,20.6,30.2,20.6z M2,19.6h27.7V14H2V19.6z"/>
	<path class="st0" d="M30.2,20.7H1.5c-0.3,0-0.6-0.3-0.6-0.6v-6.6c0-0.3,0.3-0.6,0.6-0.6h28.7c0.3,0,0.6,0.3,0.6,0.6v6.6
		C30.9,20.4,30.6,20.7,30.2,20.7z M1.5,13.1c-0.2,0-0.4,0.2-0.4,0.4v6.6c0,0.2,0.2,0.4,0.4,0.4h28.7c0.2,0,0.4-0.2,0.4-0.4v-6.6
		c0-0.2-0.2-0.4-0.4-0.4H1.5z M29.9,19.7h-28v-5.8h28V19.7z M2.1,19.4h27.5v-5.3H2.1V19.4z"/>
</g>
</svg>
