<?xml version="1.0" encoding="utf-8"?>
<!-- Generator: Adobe Illustrator 22.1.0, SVG Export Plug-In . SVG Version: 6.00 Build 0)  -->
<svg version="1.1" id="Layer_1" xmlns="http://www.w3.org/2000/svg" xmlns:xlink="http://www.w3.org/1999/xlink" x="0px" y="0px"
	 viewBox="0 0 118.1 113.7" style="enable-background:new 0 0 118.1 113.7;" xml:space="preserve">
<style type="text/css">
	.st0{fill:#FFFFFF;}
</style>
<g id="kakao_CI_x2F_BI">
	<path id="XMLID_3208_" class="st0" d="M-37.8,82.4h-7.9V16l7.9-1.7V82.4z M-16.6,34.2l6.2,4.5l-15.2,19.1L-8,78.9l-6.1,4.7
		l-20.8-25.4L-16.6,34.2z"/>
	<path id="XMLID_3205_" class="st0" d="M-1,69.8c0-4.8,1.6-8.4,4.8-10.9c3.2-2.5,7.8-3.7,13.9-3.7h9.1v-3c0-7.3-3.2-10.9-9.6-10.9
		c-2.1,0-4.2,0.3-6.5,0.9c-2.3,0.6-4.3,1.3-6.2,2.1l-2.3-5.6c2.3-1.3,4.9-2.3,7.6-3.1c2.7-0.7,5.4-1.1,7.9-1.1
		c11.1,0,16.7,5.9,16.7,17.8v30.1h-5.8l-0.9-5.2c-2.3,1.9-4.9,3.4-7.5,4.4c-2.7,1-5.2,1.5-7.6,1.5c-4.2,0-7.5-1.2-9.8-3.6
		C0.1,77.2-1,73.9-1,69.8z M13.8,76.8c1.1,0,2.2-0.1,3.4-0.4c1.2-0.3,2.3-0.7,3.5-1.1c1.2-0.5,2.3-1,3.3-1.7c1-0.7,1.9-1.4,2.7-2.1
		v-11h-8.2c-4.2,0-7.2,0.7-9.1,2.1c-1.9,1.4-2.9,3.7-2.9,6.8C6.5,74.3,8.9,76.8,13.8,76.8z"/>
	<path id="XMLID_1359_" class="st0" d="M56.3,82.4h-7.9V16l7.9-1.7V82.4z M77.4,34.2l6.2,4.5L68.4,57.7L86,78.9l-6.1,4.7L59.1,58.1
		L77.4,34.2z"/>
	<path id="XMLID_1317_" class="st0" d="M93,69.8c0-4.8,1.6-8.4,4.8-10.9c3.2-2.5,7.8-3.7,13.9-3.7h9.1v-3c0-7.3-3.2-10.9-9.6-10.9
		c-2.1,0-4.2,0.3-6.5,0.9c-2.3,0.6-4.3,1.3-6.2,2.1l-2.3-5.6c2.3-1.3,4.9-2.3,7.6-3.1c2.7-0.7,5.4-1.1,8-1.1
		c11.1,0,16.7,5.9,16.7,17.8v30.1h-5.8l-0.9-5.2c-2.3,1.9-4.9,3.4-7.5,4.4c-2.7,1-5.2,1.5-7.6,1.5c-4.2,0-7.5-1.2-9.8-3.6
		S93,73.9,93,69.8z M107.8,76.8c1.1,0,2.2-0.1,3.4-0.4c1.2-0.3,2.3-0.7,3.5-1.1c1.2-0.5,2.3-1,3.3-1.7c1-0.7,1.9-1.4,2.7-2.1v-11
		h-8.2c-4.2,0-7.2,0.7-9.1,2.1c-1.9,1.4-2.9,3.7-2.9,6.8C100.6,74.3,103,76.8,107.8,76.8z"/>
	<path id="XMLID_1265_" class="st0" d="M160.1,34.6c6.5,0,11.7,2.1,15.4,6.4c3.7,4.2,5.6,10.3,5.6,18.2c0,7.8-1.8,13.8-5.5,18
		c-3.7,4.2-8.8,6.3-15.4,6.3c-6.5,0-11.7-2.1-15.4-6.3c-3.7-4.2-5.6-10.2-5.6-18c0-7.9,1.9-14,5.6-18.2
		C148.5,36.7,153.6,34.6,160.1,34.6z M160.1,41c-4.1,0-7.3,1.5-9.5,4.6c-2.2,3.1-3.3,7.6-3.3,13.6c0,5.9,1.1,10.4,3.3,13.4
		c2.2,3,5.4,4.5,9.5,4.5c4.2,0,7.4-1.5,9.6-4.5c2.2-3,3.3-7.5,3.3-13.4c0-6-1.1-10.5-3.3-13.6C167.5,42.5,164.3,41,160.1,41z"/>
</g>
</svg>
