<?xml version="1.0" encoding="utf-8"?>
<!-- Generator: Adobe Illustrator 22.1.0, SVG Export Plug-In . SVG Version: 6.00 Build 0)  -->
<svg version="1.1" id="Layer_1" xmlns="http://www.w3.org/2000/svg" xmlns:xlink="http://www.w3.org/1999/xlink" x="0px" y="0px"
	 viewBox="0 0 32.7 36.2" style="enable-background:new 0 0 32.7 36.2;" xml:space="preserve">
<style type="text/css">
	.st0{fill:#FFFFFF;}
</style>
<g>
	<path class="st0" d="M43.1-9.7c-0.1,0-0.2,0-0.2-0.1c-0.1-0.1-0.1-0.2-0.1-0.3l0.5-2.3c0-0.1,0.1-0.2,0.2-0.2l4.8-2.3
		c0.1,0,0.2,0,0.3,0l4.3,1.9c0.1,0,0.2,0.1,0.2,0.2c0,0.1,0,0.2-0.1,0.3l-1.3,1.3c0,0-0.1,0.1-0.2,0.1L43.1-9.7
		C43.1-9.7,43.1-9.7,43.1-9.7z M43.8-12.1l-0.3,1.7l7.7-1.3l0.9-0.9l-3.7-1.6L43.8-12.1z"/>
	<path class="st0" d="M57.9,7.1c-0.1,0-0.3-0.1-0.3-0.2L53.5-9.8l-2.3-1.3c-0.1,0-0.1-0.1-0.2-0.2c0-0.1,0-0.2,0.1-0.3l1.3-1.3
		c0.1-0.1,0.2-0.1,0.3-0.1l2.5,1c0.1,0,0.1,0.1,0.2,0.2l2.8,7.5c0,0,0,0.1,0,0.1V6.8C58.3,6.9,58.1,7.1,57.9,7.1
		C58,7.1,58,7.1,57.9,7.1z M51.8-11.4l2.1,1.2c0.1,0,0.1,0.1,0.1,0.2l3.6,14.4v-8.4l-2.8-7.3l-2.2-0.9L51.8-11.4z"/>
	<path class="st0" d="M37.8,3.3C37.8,3.3,37.7,3.3,37.8,3.3c-0.2,0-0.3-0.1-0.3-0.3l-0.4-2.6c0-0.1,0-0.1,0-0.2l4.9-11.7
		c0,0,0-0.1,0.1-0.1l1.2-1c0.1-0.1,0.2-0.1,0.4,0c0.1,0.1,0.2,0.2,0.1,0.3l-0.5,2.3c0,0,0,0,0,0.1L38,3.1C38,3.2,37.9,3.3,37.8,3.3z
		 M37.7,0.5l0.2,1.4l4.8-11.9l0.3-1.4l-0.4,0.4L37.7,0.5z"/>
	<path class="st0" d="M41.6,12.7C41.6,12.7,41.6,12.7,41.6,12.7l-2.2-0.7c-0.1,0-0.2-0.1-0.2-0.2l-1.8-8.6c0-0.2,0.1-0.3,0.2-0.4
		c0.2,0,0.3,0,0.4,0.2l3.9,9.4c0,0.1,0,0.2-0.1,0.3C41.8,12.6,41.7,12.7,41.6,12.7z M39.8,11.4l1.3,0.4l-2.4-5.8L39.8,11.4z"/>
	<path class="st0" d="M40.6,10.1C40.5,10.1,40.5,10.1,40.6,10.1c-0.2,0-0.2-0.1-0.3-0.2l-2.8-6.7c0-0.1,0-0.2,0-0.2l5.3-13
		c0.1-0.1,0.2-0.2,0.3-0.2c0.1,0,0.2,0.1,0.3,0.3l0.9,17.7c0,0.1-0.1,0.2-0.1,0.3L40.7,10C40.7,10,40.6,10.1,40.6,10.1z M38.1,3
		l2.6,6.3l2.9-1.8L42.8-8.6L38.1,3z"/>
	<path class="st0" d="M46.7,9.1c0,0-0.1,0-0.1,0L43.8,8c-0.1,0-0.2-0.1-0.2-0.3L42.7-10c0-0.2,0.1-0.3,0.3-0.3l8.2-1.4
		c0.1,0,0.1,0,0.2,0l2.4,1.4c0.1,0,0.1,0.1,0.1,0.2l2.1,8.4c0,0.1,0,0.2-0.1,0.3L46.9,9C46.9,9,46.8,9.1,46.7,9.1z M44.2,7.5
		l2.4,0.9l8.9-10.1l-2-8.1l-2.2-1.3l-7.9,1.3L44.2,7.5z"/>
	<path class="st0" d="M51,15.1c-0.1,0-0.2,0-0.2-0.1l-4.3-6c-0.1-0.1-0.1-0.3,0-0.4l9.1-10.3c0.1-0.1,0.2-0.1,0.3-0.1
		c0.1,0,0.2,0.1,0.2,0.2l2.1,8.4c0,0.1,0,0.1,0,0.2l-3,7c0,0.1-0.1,0.2-0.2,0.2L51,15.1C51,15.1,51,15.1,51,15.1z M47.1,8.8l4,5.7
		l3.6-0.9l2.9-6.8l-1.9-7.7L47.1,8.8z"/>
	<path class="st0" d="M49.5,15.9c0,0-0.1,0-0.1,0l-7.8-3.2c-0.1,0-0.1-0.1-0.2-0.2l-1.1-2.6c-0.1-0.1,0-0.3,0.1-0.4l3.4-2.1
		c0.1,0,0.2-0.1,0.3,0l2.8,1.1c0.1,0,0.1,0.1,0.1,0.1l4.3,6c0.1,0.1,0.1,0.2,0,0.3c0,0.1-0.1,0.2-0.2,0.2l-1.5,0.8
		C49.5,15.9,49.5,15.9,49.5,15.9z M41.9,12.1l7.6,3.1l1.1-0.5l-4-5.7l-2.6-1l-3,1.9L41.9,12.1z"/>
	<path class="st0" d="M48.5,17.4c0,0-0.1,0-0.1,0l-8.1-3.7c-0.1,0-0.1-0.1-0.1-0.1l-0.9-1.8c-0.1-0.1,0-0.2,0-0.3
		c0.1-0.1,0.2-0.1,0.3-0.1l2.1,0.7l7.8,3.2c0,0,0,0,0.1,0l1.5,1.2c0.1,0.1,0.1,0.2,0.1,0.3c0,0.1-0.1,0.2-0.2,0.2L48.5,17.4
		C48.6,17.4,48.6,17.4,48.5,17.4z M40.7,13.2l7.9,3.6l1.7-0.3l-0.9-0.7l-7.8-3.2l-1.4-0.5L40.7,13.2z"/>
	<path class="st0" d="M51,17c-0.1,0-0.1,0-0.2-0.1l-1.5-1.2c-0.1-0.1-0.1-0.2-0.1-0.3c0-0.1,0.1-0.2,0.2-0.2l1.5-0.8c0,0,0,0,0.1,0
		l4-1c0.1,0,0.2,0,0.2,0c0.1,0,0.1,0.1,0.1,0.2l0.2,1c0,0.1,0,0.3-0.2,0.3L51.1,17C51.1,17,51,17,51,17z M50,15.6l1,0.8l3.8-1.8
		l-0.1-0.5l-3.6,0.9L50,15.6z"/>
	<path class="st0" d="M55.2,15.1c0,0-0.1,0-0.1,0c-0.1,0-0.2-0.1-0.2-0.2l-0.2-1c0-0.1,0-0.1,0-0.2l3-7c0.1-0.1,0.2-0.2,0.3-0.2
		c0.1,0,0.2,0.2,0.2,0.3v6.5c0,0.1-0.1,0.2-0.2,0.3l-2.8,1.6C55.3,15.1,55.2,15.1,55.2,15.1z M55.3,13.8l0.1,0.5l2.3-1.3V8.3
		L55.3,13.8z M57.9,13.2L57.9,13.2L57.9,13.2z"/>
</g>
<g>
	<path class="st0" d="M86.9,29.9c-0.3,0-0.5-0.2-0.5-0.5v-1.9c0-1.8-1.1-3.3-2.8-3.9l-3.6-1.2C78,21.7,76.6,20,76.5,18l0-0.5
		c-1.4,0.6-3,0.6-4.4,0l0,0.5c-0.2,2-1.5,3.8-3.5,4.4l-3.6,1.2c-1.7,0.6-2.8,2.1-2.8,3.9v1.9c0,0.3-0.2,0.5-0.5,0.5
		s-0.5-0.2-0.5-0.5v-1.9c0-2.2,1.4-4.2,3.5-4.8l3.6-1.2c1.6-0.5,2.7-1.9,2.8-3.6l0.1-1.3c0-0.2,0.1-0.3,0.3-0.4
		c0.2-0.1,0.3-0.1,0.5,0c1.4,0.9,3.3,0.9,4.7,0c0.1-0.1,0.3-0.1,0.5,0c0.2,0.1,0.3,0.2,0.3,0.4l0.1,1.3c0.1,1.6,1.2,3,2.8,3.6
		l3.6,1.2c2.1,0.7,3.5,2.6,3.5,4.8v1.9C87.4,29.7,87.2,29.9,86.9,29.9z"/>
	<path class="st0" d="M74.2,17.9c-3,0-5.4-2.4-5.4-5.4V8.1c0-3,2.4-5.4,5.4-5.4c3,0,5.4,2.4,5.4,5.4v4.4
		C79.6,15.5,77.2,17.9,74.2,17.9z M74.2,3.8c-2.4,0-4.4,2-4.4,4.4v4.4c0,2.4,2,4.4,4.4,4.4c2.4,0,4.4-2,4.4-4.4V8.1
		C78.6,5.7,76.6,3.8,74.2,3.8z"/>
</g>
<g>
	<path class="st0" d="M16.6,29.5c-1.3,0-2.3-1-2.3-2.3s1-2.3,2.3-2.3c1.3,0,2.3,1,2.3,2.3S17.9,29.5,16.6,29.5z M16.6,25.9
		c-0.7,0-1.3,0.6-1.3,1.3s0.6,1.3,1.3,1.3c0.7,0,1.3-0.6,1.3-1.3S17.4,25.9,16.6,25.9z"/>
	<path class="st0" d="M6.7,18.6c-0.1,0-0.3,0-0.4-0.1c-0.2-0.2-0.2-0.5,0-0.7c2.8-2.8,6.4-4.3,10.3-4.3s7.6,1.5,10.3,4.3
		c0.2,0.2,0.2,0.5,0,0.7s-0.5,0.2-0.7,0c-2.6-2.6-6-4-9.6-4s-7,1.4-9.6,4C6.9,18.5,6.8,18.6,6.7,18.6z"/>
	<path class="st0" d="M30.6,14.5c-0.1,0-0.3,0-0.4-0.1c-3.6-3.6-8.5-5.7-13.6-5.7c-5.1,0-10,2-13.6,5.7c-0.2,0.2-0.5,0.2-0.7,0
		s-0.2-0.5,0-0.7c3.8-3.8,8.9-5.9,14.3-5.9S27.1,9.8,31,13.7c0.2,0.2,0.2,0.5,0,0.7C30.9,14.5,30.7,14.5,30.6,14.5z"/>
	<path class="st0" d="M10.7,22.6c-0.1,0-0.3,0-0.4-0.1c-0.2-0.2-0.2-0.5,0-0.7c1.7-1.7,3.9-2.6,6.3-2.6c2.4,0,4.6,0.9,6.3,2.6
		c0.2,0.2,0.2,0.5,0,0.7s-0.5,0.2-0.7,0c-1.5-1.5-3.5-2.3-5.6-2.3c-2.1,0-4.1,0.8-5.6,2.3C11,22.6,10.8,22.6,10.7,22.6z"/>
</g>
<g>
	<path class="st0" d="M89.4,59.9H66.3c-2.2,0-3.9-1.8-3.9-3.9V44.4c0-2.2,1.8-3.9,3.9-3.9h23.1c2.2,0,3.9,1.8,3.9,3.9V56
		C93.3,58.2,91.6,59.9,89.4,59.9z M66.3,41.5c-1.6,0-2.9,1.3-2.9,2.9V56c0,1.6,1.3,2.9,2.9,2.9h23.1c1.6,0,2.9-1.3,2.9-2.9V44.4
		c0-1.6-1.3-2.9-2.9-2.9H66.3z"/>
	<path class="st0" d="M85.4,56.8c-1.3,0-2.3-1-2.3-2.3s1-2.3,2.3-2.3c0.6,0,1.2,0.2,1.6,0.6c0.1,0.1,0.2,0.2,0.2,0.4
		s-0.1,0.3-0.2,0.4c-0.3,0.3-0.4,0.6-0.4,1c0,0.4,0.2,0.7,0.4,1c0.1,0.1,0.2,0.2,0.2,0.4s-0.1,0.3-0.2,0.4
		C86.6,56.6,86,56.8,85.4,56.8z M85.4,53.1c-0.7,0-1.3,0.6-1.3,1.3c0,0.7,0.6,1.3,1.3,1.3c0.2,0,0.4,0,0.5-0.1
		c-0.2-0.4-0.4-0.8-0.4-1.2s0.1-0.9,0.4-1.2C85.8,53.1,85.6,53.1,85.4,53.1z"/>
	<path class="st0" d="M87.9,56.8c-1.3,0-2.3-1-2.3-2.3s1-2.3,2.3-2.3c1.3,0,2.3,1,2.3,2.3S89.2,56.8,87.9,56.8z M87.9,53.1
		c-0.7,0-1.3,0.6-1.3,1.3s0.6,1.3,1.3,1.3c0.7,0,1.3-0.6,1.3-1.3S88.7,53.1,87.9,53.1z"/>
	<g>
		<line class="st0" x1="65.9" y1="51" x2="67.6" y2="51"/>
		<path class="st0" d="M67.6,51.5h-1.7c-0.3,0-0.5-0.2-0.5-0.5s0.2-0.5,0.5-0.5h1.7c0.3,0,0.5,0.2,0.5,0.5S67.9,51.5,67.6,51.5z"/>
	</g>
	<g>
		<line class="st0" x1="65.9" y1="54.4" x2="72.5" y2="54.4"/>
		<path class="st0" d="M72.5,54.9h-6.6c-0.3,0-0.5-0.2-0.5-0.5s0.2-0.5,0.5-0.5h6.6c0.3,0,0.5,0.2,0.5,0.5S72.8,54.9,72.5,54.9z"/>
	</g>
	<g>
		<line class="st0" x1="69.9" y1="51" x2="71.6" y2="51"/>
		<path class="st0" d="M71.6,51.5h-1.7c-0.3,0-0.5-0.2-0.5-0.5s0.2-0.5,0.5-0.5h1.7c0.3,0,0.5,0.2,0.5,0.5S71.8,51.5,71.6,51.5z"/>
	</g>
	<g>
		<line class="st0" x1="73.8" y1="51" x2="75.5" y2="51"/>
		<path class="st0" d="M75.5,51.5h-1.7c-0.3,0-0.5-0.2-0.5-0.5s0.2-0.5,0.5-0.5h1.7c0.3,0,0.5,0.2,0.5,0.5S75.8,51.5,75.5,51.5z"/>
	</g>
	<g>
		<line class="st0" x1="77.8" y1="51" x2="79.5" y2="51"/>
		<path class="st0" d="M79.5,51.5h-1.7c-0.3,0-0.5-0.2-0.5-0.5s0.2-0.5,0.5-0.5h1.7c0.3,0,0.5,0.2,0.5,0.5S79.8,51.5,79.5,51.5z"/>
	</g>
</g>
</svg>
